<svg width="24" height="24" viewBox="0 0 24 24" fill="none" xmlns="http://www.w3.org/2000/svg">
<mask id="mask0_6212_27540" style="mask-type:luminance" maskUnits="userSpaceOnUse" x="0" y="0" width="24" height="24">
<path d="M24 0H0V24H24V0Z" fill="white"/>
</mask>
<g mask="url(#mask0_6212_27540)">
<mask id="mask1_6212_27540" style="mask-type:alpha" maskUnits="userSpaceOnUse" x="0" y="1" width="24" height="22">
<path d="M0.0305868 2.69653C-0.0934715 2.07763 0.379863 1.5 1.01108 1.5H7.17262C7.65275 1.5 8.06512 1.84123 8.15495 2.31289L8.28582 3H22.9943C23.632 3 24.1068 3.58875 23.9716 4.21193L22.5621 10.7119C22.4624 11.1718 22.0554 11.5 21.5848 11.5H9.90487L10.3811 14H20.0172C20.6525 14 21.1268 14.5847 20.9956 15.2064L19.6245 21.7064C19.5269 22.1689 19.1188 22.5 18.646 22.5H4.81957C4.34305 22.5 3.93272 22.1638 3.83907 21.6965L0.0305868 2.69653Z" fill="url(#paint0_linear_6212_27540)"/>
</mask>
<g mask="url(#mask1_6212_27540)">
<path d="M23.9706 4.21144C24.1057 3.58826 23.631 2.99951 22.9933 2.99951H0.483398L2.07739 11.4995H21.5838C22.0544 11.4995 22.4613 11.1714 22.5611 10.7114L23.9706 4.21144Z" fill="url(#paint1_linear_6212_27540)"/>
<path d="M20.995 15.2059C21.1261 14.5843 20.6518 13.9995 20.0165 13.9995H3.69706C3.07336 13.9995 2.60183 14.5642 2.71311 15.1779L3.89166 21.6779C3.97791 22.1536 4.39216 22.4995 4.87563 22.4995H18.6453C19.1181 22.4995 19.5262 22.1685 19.6238 21.7059L20.995 15.2059Z" fill="url(#paint2_linear_6212_27540)"/>
<g filter="url(#filter0_f_6212_27540)">
<path d="M1.01011 1.99951C0.378885 1.99951 -0.0944482 2.57714 0.0296103 3.19604L3.83809 22.196C3.93174 22.6633 4.34206 22.9995 4.81859 22.9995H11.9991L8.15399 2.81241C8.06414 2.34075 7.65176 1.99951 7.17164 1.99951H1.01011Z" fill="black" fill-opacity="0.32"/>
</g>
<g filter="url(#filter1_f_6212_27540)">
<path d="M1.01011 1.59473C0.378885 1.59473 -0.0944482 2.17235 0.0296103 2.79128L3.83809 21.7913C3.93174 22.2585 4.34206 22.5947 4.81859 22.5947H11.9991L8.15399 2.40762C8.06414 1.93596 7.65176 1.59473 7.17164 1.59473H1.01011Z" fill="black" fill-opacity="0.24"/>
</g>
<path d="M1.0106 1.49951C0.379373 1.49951 -0.0939599 2.07714 0.0300986 2.69604L3.83858 21.696C3.93223 22.1633 4.34255 22.4995 4.81908 22.4995H11.9996L8.15448 2.3124C8.06463 1.84075 7.65225 1.49951 7.17213 1.49951H1.0106Z" fill="url(#paint3_linear_6212_27540)"/>
</g>
</g>
<defs>
<filter id="filter0_f_6212_27540" x="-7.99023" y="-6.00049" width="27.9893" height="37" filterUnits="userSpaceOnUse" color-interpolation-filters="sRGB">
<feFlood flood-opacity="0" result="BackgroundImageFix"/>
<feBlend mode="normal" in="SourceGraphic" in2="BackgroundImageFix" result="shape"/>
<feGaussianBlur stdDeviation="4" result="effect1_foregroundBlur_6212_27540"/>
</filter>
<filter id="filter1_f_6212_27540" x="-0.750234" y="0.834727" width="13.5093" height="22.52" filterUnits="userSpaceOnUse" color-interpolation-filters="sRGB">
<feFlood flood-opacity="0" result="BackgroundImageFix"/>
<feBlend mode="normal" in="SourceGraphic" in2="BackgroundImageFix" result="shape"/>
<feGaussianBlur stdDeviation="0.38" result="effect1_foregroundBlur_6212_27540"/>
</filter>
<linearGradient id="paint0_linear_6212_27540" x1="-3.12487" y1="-3.75" x2="8.94728" y2="23.836" gradientUnits="userSpaceOnUse">
<stop stop-color="#FAC240"/>
<stop offset="0.199984" stop-color="#F29800"/>
</linearGradient>
<linearGradient id="paint1_linear_6212_27540" x1="24.2334" y1="2.99951" x2="19.295" y2="17.7834" gradientUnits="userSpaceOnUse">
<stop stop-color="#FFED80"/>
<stop offset="1" stop-color="#FFDB00"/>
</linearGradient>
<linearGradient id="paint2_linear_6212_27540" x1="21.2494" y1="13.9995" x2="3.45238" y2="24.1675" gradientUnits="userSpaceOnUse">
<stop stop-color="#EA8200"/>
<stop offset="1" stop-color="#C46A08"/>
</linearGradient>
<linearGradient id="paint3_linear_6212_27540" x1="-3.12535" y1="-3.75049" x2="8.94677" y2="23.8355" gradientUnits="userSpaceOnUse">
<stop stop-color="#FAC240"/>
<stop offset="0.199984" stop-color="#F29800"/>
</linearGradient>
</defs>
</svg>
