<svg width="24" height="24" viewBox="0 0 24 24" fill="none" xmlns="http://www.w3.org/2000/svg">
<mask id="mask0_6212_27519" style="mask-type:luminance" maskUnits="userSpaceOnUse" x="0" y="0" width="24" height="24">
<path d="M24 0H0V24H24V0Z" fill="white"/>
</mask>
<g mask="url(#mask0_6212_27519)">
<mask id="mask1_6212_27519" style="mask-type:alpha" maskUnits="userSpaceOnUse" x="1" y="1" width="22" height="22">
<path d="M15.4265 1.91516C15.7701 1.66632 16.2334 1.66141 16.5822 1.90291L22.0692 5.7016C22.339 5.8884 22.5 6.19565 22.5 6.5238V21.4998C22.5 22.0521 22.0523 22.4998 21.5 22.4998H2.5C1.94771 22.4998 1.5 22.0521 1.5 21.4998V12.5104C1.5 12.1897 1.65377 11.8885 1.91349 11.7004L15.4265 1.91516Z" fill="white"/>
</mask>
<g mask="url(#mask1_6212_27519)">
<g filter="url(#filter0_d_6212_27519)">
<path d="M16 1.5L22.5 6V22.5H1.5V12L16 1.5Z" fill="url(#paint0_linear_6212_27519)"/>
</g>
<g filter="url(#filter1_d_6212_27519)">
<path d="M15.409 10.9181C15.7606 11.178 16.2403 11.1793 16.5934 10.9214L22.5 6.60498V23.105H1.5V17.605L12.5329 9.65653C12.8857 9.40241 13.3622 9.40531 13.7119 9.66373L15.409 10.9181Z" fill="black" fill-opacity="0.32"/>
</g>
<g filter="url(#filter2_d_6212_27519)">
<path d="M15.409 10.9181C15.7606 11.178 16.2403 11.1793 16.5934 10.9214L22.5 6.60498V23.105H1.5V17.605L12.5329 9.65653C12.8857 9.40241 13.3622 9.40531 13.7119 9.66373L15.409 10.9181Z" fill="black" fill-opacity="0.24"/>
</g>
<path d="M15.409 10.3132C15.7606 10.5731 16.2403 10.5744 16.5934 10.3164L22.5 6V22.5H1.5V17L12.5329 9.05155C12.8857 8.79743 13.3622 8.80033 13.7119 9.05875L15.409 10.3132Z" fill="url(#paint1_linear_6212_27519)"/>
<g filter="url(#filter3_f_6212_27519)">
<path d="M22.5 22.5949V15.3449L20.8364 14.1434C20.4864 13.8907 20.0138 13.891 19.6642 14.1443L8 22.5949H22.5Z" fill="black" fill-opacity="0.24"/>
</g>
<g filter="url(#filter4_f_6212_27519)">
<path d="M22.5 23.0949V15.8449L20.8364 14.6434C20.4864 14.3907 20.0138 14.391 19.6642 14.6443L8 23.0949H22.5Z" fill="black" fill-opacity="0.32"/>
</g>
<path d="M22.5 22.5002V15.2502L20.8364 14.0487C20.4864 13.7959 20.0138 13.7963 19.6642 14.0496L8 22.5002H22.5Z" fill="url(#paint2_linear_6212_27519)"/>
</g>
</g>
<defs>
<filter id="filter0_d_6212_27519" x="-6.5" y="-4.5" width="37" height="37" filterUnits="userSpaceOnUse" color-interpolation-filters="sRGB">
<feFlood flood-opacity="0" result="BackgroundImageFix"/>
<feColorMatrix in="SourceAlpha" type="matrix" values="0 0 0 0 0 0 0 0 0 0 0 0 0 0 0 0 0 0 127 0" result="hardAlpha"/>
<feOffset dy="2"/>
<feGaussianBlur stdDeviation="4"/>
<feColorMatrix type="matrix" values="0 0 0 0 0 0 0 0 0 0 0 0 0 0 0 0 0 0 0.2 0"/>
<feBlend mode="normal" in2="BackgroundImageFix" result="effect1_dropShadow_6212_27519"/>
<feBlend mode="normal" in="SourceGraphic" in2="effect1_dropShadow_6212_27519" result="shape"/>
</filter>
<filter id="filter1_d_6212_27519" x="-6.5" y="2.60498" width="37" height="32.5" filterUnits="userSpaceOnUse" color-interpolation-filters="sRGB">
<feFlood flood-opacity="0" result="BackgroundImageFix"/>
<feColorMatrix in="SourceAlpha" type="matrix" values="0 0 0 0 0 0 0 0 0 0 0 0 0 0 0 0 0 0 127 0" result="hardAlpha"/>
<feOffset dy="4"/>
<feGaussianBlur stdDeviation="4"/>
<feColorMatrix type="matrix" values="0 0 0 0 0 0 0 0 0 0 0 0 0 0 0 0 0 0 0.25 0"/>
<feBlend mode="normal" in2="BackgroundImageFix" result="effect1_dropShadow_6212_27519"/>
<feBlend mode="normal" in="SourceGraphic" in2="effect1_dropShadow_6212_27519" result="shape"/>
</filter>
<filter id="filter2_d_6212_27519" x="0.74" y="6.60498" width="22.52" height="21.26" filterUnits="userSpaceOnUse" color-interpolation-filters="sRGB">
<feFlood flood-opacity="0" result="BackgroundImageFix"/>
<feColorMatrix in="SourceAlpha" type="matrix" values="0 0 0 0 0 0 0 0 0 0 0 0 0 0 0 0 0 0 127 0" result="hardAlpha"/>
<feOffset dy="4"/>
<feGaussianBlur stdDeviation="0.38"/>
<feColorMatrix type="matrix" values="0 0 0 0 0 0 0 0 0 0 0 0 0 0 0 0 0 0 1 0"/>
<feBlend mode="normal" in2="BackgroundImageFix" result="effect1_dropShadow_6212_27519"/>
<feBlend mode="normal" in="SourceGraphic" in2="effect1_dropShadow_6212_27519" result="shape"/>
</filter>
<filter id="filter3_f_6212_27519" x="7.24" y="13.1941" width="16.02" height="10.1606" filterUnits="userSpaceOnUse" color-interpolation-filters="sRGB">
<feFlood flood-opacity="0" result="BackgroundImageFix"/>
<feBlend mode="normal" in="SourceGraphic" in2="BackgroundImageFix" result="shape"/>
<feGaussianBlur stdDeviation="0.38" result="effect1_foregroundBlur_6212_27519"/>
</filter>
<filter id="filter4_f_6212_27519" x="0" y="6.4541" width="30.5" height="24.6406" filterUnits="userSpaceOnUse" color-interpolation-filters="sRGB">
<feFlood flood-opacity="0" result="BackgroundImageFix"/>
<feBlend mode="normal" in="SourceGraphic" in2="BackgroundImageFix" result="shape"/>
<feGaussianBlur stdDeviation="4" result="effect1_foregroundBlur_6212_27519"/>
</filter>
<linearGradient id="paint0_linear_6212_27519" x1="-0.46875" y1="2.32584" x2="2.9802" y2="25.5638" gradientUnits="userSpaceOnUse">
<stop stop-color="#158915"/>
<stop offset="1" stop-color="#065F18"/>
</linearGradient>
<linearGradient id="paint1_linear_6212_27519" x1="-3.42187" y1="6.11457" x2="-0.604719" y2="25.1588" gradientUnits="userSpaceOnUse">
<stop stop-color="#6AD116"/>
<stop offset="1" stop-color="#34A117"/>
</linearGradient>
<linearGradient id="paint2_linear_6212_27519" x1="8.22655" y1="13.6828" x2="9.31462" y2="23.9756" gradientUnits="userSpaceOnUse">
<stop stop-color="#C3F488"/>
<stop offset="1" stop-color="#8FDC50"/>
</linearGradient>
</defs>
</svg>
