<svg width="24" height="24" viewBox="0 0 24 24" fill="none" xmlns="http://www.w3.org/2000/svg">
<mask id="mask0_6212_27577" style="mask-type:luminance" maskUnits="userSpaceOnUse" x="0" y="-1" width="25" height="25">
<path d="M24.0044 -0.00195312H0.00439453V23.998H24.0044V-0.00195312Z" fill="white"/>
</mask>
<g mask="url(#mask0_6212_27577)">
<mask id="mask1_6212_27577" style="mask-type:alpha" maskUnits="userSpaceOnUse" x="1" y="1" width="22" height="22">
<path d="M21.5024 1.49805H2.50244C1.95016 1.49805 1.50244 1.94576 1.50244 2.49805V21.498C1.50244 22.0503 1.95016 22.498 2.50244 22.498H21.5024C22.0547 22.498 22.5024 22.0503 22.5024 21.498V2.49805C22.5024 1.94576 22.0547 1.49805 21.5024 1.49805Z" fill="#C4C4C4"/>
</mask>
<g mask="url(#mask1_6212_27577)">
<path d="M21.5024 1.49805H2.50244C1.95016 1.49805 1.50244 1.94576 1.50244 2.49805V21.498C1.50244 22.0503 1.95016 22.498 2.50244 22.498H21.5024C22.0547 22.498 22.5024 22.0503 22.5024 21.498V2.49805C22.5024 1.94576 22.0547 1.49805 21.5024 1.49805Z" fill="url(#paint0_linear_6212_27577)"/>
<g filter="url(#filter0_f_6212_27577)">
<path d="M1.50244 7.59277H15.5024C16.0547 7.59277 16.5024 8.0405 16.5024 8.59277V22.5928H1.50244V7.59277Z" fill="black" fill-opacity="0.24"/>
</g>
<g filter="url(#filter1_f_6212_27577)">
<path d="M1.50244 7.59277H15.5024C16.0547 7.59277 16.5024 8.0405 16.5024 8.59277V22.5928H1.50244V7.59277Z" fill="black" fill-opacity="0.32"/>
</g>
<path d="M1.50244 7.49805H15.5024C16.0547 7.49805 16.5024 7.94577 16.5024 8.49805V22.498H1.50244V7.49805Z" fill="url(#paint1_linear_6212_27577)"/>
<g filter="url(#filter2_f_6212_27577)">
<path fill-rule="evenodd" clip-rule="evenodd" d="M6.00244 12.0937C8.48772 12.0937 10.5024 10.079 10.5024 7.59375C10.5024 5.10847 8.48772 3.09375 6.00244 3.09375C3.51717 3.09375 1.50244 5.10847 1.50244 7.59375C1.50244 10.079 3.51717 12.0937 6.00244 12.0937ZM9.50244 13.5938H1.50244V22.5938H10.5024V14.5938C10.5024 14.0415 10.0547 13.5938 9.50244 13.5938Z" fill="black" fill-opacity="0.24"/>
</g>
<g filter="url(#filter3_f_6212_27577)">
<path fill-rule="evenodd" clip-rule="evenodd" d="M6.00244 12.4985C8.48772 12.4985 10.5024 10.4838 10.5024 7.99854C10.5024 5.51326 8.48772 3.49854 6.00244 3.49854C3.51717 3.49854 1.50244 5.51326 1.50244 7.99854C1.50244 10.4838 3.51717 12.4985 6.00244 12.4985ZM9.50244 13.9985H1.50244V22.9985H10.5024V14.9985C10.5024 14.4463 10.0547 13.9985 9.50244 13.9985Z" fill="black" fill-opacity="0.32"/>
</g>
<path fill-rule="evenodd" clip-rule="evenodd" d="M6.00244 11.9976C8.48772 11.9976 10.5024 9.98283 10.5024 7.49756C10.5024 5.01228 8.48772 2.99756 6.00244 2.99756C3.51717 2.99756 1.50244 5.01228 1.50244 7.49756C1.50244 9.98283 3.51717 11.9976 6.00244 11.9976ZM9.50244 13.4976H1.50244V22.4976H10.5024V14.4976C10.5024 13.9453 10.0547 13.4976 9.50244 13.4976Z" fill="url(#paint2_linear_6212_27577)"/>
</g>
</g>
<defs>
<filter id="filter0_f_6212_27577" x="0.742441" y="6.83277" width="16.52" height="16.52" filterUnits="userSpaceOnUse" color-interpolation-filters="sRGB">
<feFlood flood-opacity="0" result="BackgroundImageFix"/>
<feBlend mode="normal" in="SourceGraphic" in2="BackgroundImageFix" result="shape"/>
<feGaussianBlur stdDeviation="0.38" result="effect1_foregroundBlur_6212_27577"/>
</filter>
<filter id="filter1_f_6212_27577" x="-6.49756" y="-0.407227" width="31" height="31" filterUnits="userSpaceOnUse" color-interpolation-filters="sRGB">
<feFlood flood-opacity="0" result="BackgroundImageFix"/>
<feBlend mode="normal" in="SourceGraphic" in2="BackgroundImageFix" result="shape"/>
<feGaussianBlur stdDeviation="4" result="effect1_foregroundBlur_6212_27577"/>
</filter>
<filter id="filter2_f_6212_27577" x="0.742441" y="2.33375" width="10.52" height="21.02" filterUnits="userSpaceOnUse" color-interpolation-filters="sRGB">
<feFlood flood-opacity="0" result="BackgroundImageFix"/>
<feBlend mode="normal" in="SourceGraphic" in2="BackgroundImageFix" result="shape"/>
<feGaussianBlur stdDeviation="0.38" result="effect1_foregroundBlur_6212_27577"/>
</filter>
<filter id="filter3_f_6212_27577" x="-6.49756" y="-4.50146" width="25" height="35.5" filterUnits="userSpaceOnUse" color-interpolation-filters="sRGB">
<feFlood flood-opacity="0" result="BackgroundImageFix"/>
<feBlend mode="normal" in="SourceGraphic" in2="BackgroundImageFix" result="shape"/>
<feGaussianBlur stdDeviation="4" result="effect1_foregroundBlur_6212_27577"/>
</filter>
<linearGradient id="paint0_linear_6212_27577" x1="1.50244" y1="1.49805" x2="21.7544" y2="23.1962" gradientUnits="userSpaceOnUse">
<stop stop-color="#8661C5"/>
<stop offset="1" stop-color="#5C428B"/>
</linearGradient>
<linearGradient id="paint1_linear_6212_27577" x1="1.50244" y1="7.49805" x2="7.34029" y2="25.4735" gradientUnits="userSpaceOnUse">
<stop stop-color="#CD9EF0"/>
<stop offset="1" stop-color="#9F75D3"/>
</linearGradient>
<linearGradient id="paint2_linear_6212_27577" x1="1.22613" y1="2.99756" x2="16.6365" y2="12.017" gradientUnits="userSpaceOnUse">
<stop stop-color="#F1D9FF"/>
<stop offset="1" stop-color="#E4B4FF"/>
</linearGradient>
</defs>
</svg>
