<svg width="26" height="26" viewBox="0 0 26 26" fill="none" xmlns="http://www.w3.org/2000/svg">
<path d="M10.5 26.0005C16.299 26.0005 21 21.2995 21 15.5005C21 9.7015 16.299 5.00049 10.5 5.00049C4.70101 5.00049 0 9.7015 0 15.5005C0 21.2995 4.70101 26.0005 10.5 26.0005Z" fill="url(#paint0_linear_6212_27434)"/>
<g filter="url(#filter0_f_6212_27434)">
<path d="M23.9201 15.8929C23.9729 15.4361 24 14.9714 24 14.5005C24 7.87306 18.6274 2.50049 12 2.50049C11.529 2.50049 11.0644 2.52762 10.6076 2.5804C10.2504 2.73295 10 3.08748 10 3.50049V16.5005H23C23.413 16.5005 23.7675 16.2501 23.9201 15.8929Z" fill="black" fill-opacity="0.32"/>
</g>
<g filter="url(#filter1_f_6212_27434)">
<path d="M23.9201 15.4881C23.9729 15.0313 24 14.5667 24 14.0957C24 7.46828 18.6274 2.0957 12 2.0957C11.529 2.0957 11.0644 2.12283 10.6076 2.17561C10.2504 2.32816 10 2.68269 10 3.0957V16.0957H23C23.413 16.0957 23.7675 15.8453 23.9201 15.4881Z" fill="black" fill-opacity="0.24"/>
</g>
<path fill-rule="evenodd" clip-rule="evenodd" d="M23.9201 15.3929C23.9729 14.9361 24 14.4714 24 14.0005C24 7.37306 18.6274 2.00049 12 2.00049C11.529 2.00049 11.0644 2.02762 10.6076 2.0804C10.2504 2.23295 10 2.58748 10 3.00049V16.0005H23C23.413 16.0005 23.7675 15.7501 23.9201 15.3929Z" fill="url(#paint1_linear_6212_27434)"/>
<mask id="mask0_6212_27434" style="mask-type:alpha" maskUnits="userSpaceOnUse" x="10" y="2" width="14" height="15">
<path fill-rule="evenodd" clip-rule="evenodd" d="M23.9201 15.3929C23.9729 14.9361 24 14.4714 24 14.0005C24 7.37306 18.6274 2.00049 12 2.00049C11.529 2.00049 11.0644 2.02762 10.6076 2.0804C10.2504 2.23295 10 2.58748 10 3.00049V16.0005H23C23.413 16.0005 23.7675 15.7501 23.9201 15.3929Z" fill="url(#paint2_linear_6212_27434)"/>
</mask>
<g mask="url(#mask0_6212_27434)">
<g filter="url(#filter2_f_6212_27434)">
<path d="M10 10.0005H15.5C16.0523 10.0005 16.5 10.4482 16.5 11.0005V16.5005H10V10.0005Z" fill="black" fill-opacity="0.32"/>
</g>
<g filter="url(#filter3_f_6212_27434)">
<path d="M10 9.5957H15.5C16.0523 9.5957 16.5 10.0434 16.5 10.5957V16.0957H10V9.5957Z" fill="black" fill-opacity="0.24"/>
</g>
<path d="M10 9.50049H15.5C16.0523 9.50049 16.5 9.94821 16.5 10.5005V16.0005H10V9.50049Z" fill="url(#paint3_linear_6212_27434)"/>
</g>
<defs>
<filter id="filter0_f_6212_27434" x="8" y="0.500488" width="18" height="18" filterUnits="userSpaceOnUse" color-interpolation-filters="sRGB">
<feFlood flood-opacity="0" result="BackgroundImageFix"/>
<feBlend mode="normal" in="SourceGraphic" in2="BackgroundImageFix" result="shape"/>
<feGaussianBlur stdDeviation="1" result="effect1_foregroundBlur_6212_27434"/>
</filter>
<filter id="filter1_f_6212_27434" x="9.81" y="1.9057" width="14.38" height="14.38" filterUnits="userSpaceOnUse" color-interpolation-filters="sRGB">
<feFlood flood-opacity="0" result="BackgroundImageFix"/>
<feBlend mode="normal" in="SourceGraphic" in2="BackgroundImageFix" result="shape"/>
<feGaussianBlur stdDeviation="0.095" result="effect1_foregroundBlur_6212_27434"/>
</filter>
<filter id="filter2_f_6212_27434" x="8" y="8.00049" width="10.5" height="10.5" filterUnits="userSpaceOnUse" color-interpolation-filters="sRGB">
<feFlood flood-opacity="0" result="BackgroundImageFix"/>
<feBlend mode="normal" in="SourceGraphic" in2="BackgroundImageFix" result="shape"/>
<feGaussianBlur stdDeviation="1" result="effect1_foregroundBlur_6212_27434"/>
</filter>
<filter id="filter3_f_6212_27434" x="9.81" y="9.4057" width="6.88" height="6.88" filterUnits="userSpaceOnUse" color-interpolation-filters="sRGB">
<feFlood flood-opacity="0" result="BackgroundImageFix"/>
<feBlend mode="normal" in="SourceGraphic" in2="BackgroundImageFix" result="shape"/>
<feGaussianBlur stdDeviation="0.095" result="effect1_foregroundBlur_6212_27434"/>
</filter>
<linearGradient id="paint0_linear_6212_27434" x1="7.7087" y1="12.0886" x2="14.7253" y2="25.19" gradientUnits="userSpaceOnUse">
<stop stop-color="#0078D4"/>
<stop offset="1" stop-color="#2064AE"/>
</linearGradient>
<linearGradient id="paint1_linear_6212_27434" x1="14" y1="4.37549" x2="27.296" y2="16.4337" gradientUnits="userSpaceOnUse">
<stop stop-color="#40C4F5"/>
<stop offset="1" stop-color="#0095E6"/>
</linearGradient>
<linearGradient id="paint2_linear_6212_27434" x1="14" y1="4.37549" x2="27.296" y2="16.4337" gradientUnits="userSpaceOnUse">
<stop stop-color="#40C4F5"/>
<stop offset="1" stop-color="#0095E6"/>
</linearGradient>
<linearGradient id="paint3_linear_6212_27434" x1="10.4749" y1="9.55324" x2="13.2296" y2="16.5079" gradientUnits="userSpaceOnUse">
<stop stop-color="#A7F2FF"/>
<stop offset="1" stop-color="#7CECFF"/>
</linearGradient>
</defs>
</svg>
