<svg width="24" height="24" viewBox="0 0 24 24" fill="none" xmlns="http://www.w3.org/2000/svg">
<mask id="mask0_6212_27476" style="mask-type:alpha" maskUnits="userSpaceOnUse" x="0" y="0" width="24" height="24">
<path d="M2.36966 14.3824C1.43893 13.4385 0.743939 12.2774 0.354354 10.9932C-0.198318 9.17125 -0.102168 7.21407 0.626421 5.4551C1.35501 3.69613 2.67096 2.24421 4.35004 1.34672C6.02912 0.44923 7.96745 0.161706 9.83476 0.533137C10.5941 0.684178 11.3226 0.940388 12.001 1.29022C12.9181 0.81745 13.9228 0.517881 14.9647 0.415257C16.8593 0.228657 18.76 0.704751 20.3429 1.76242C21.9258 2.82009 23.093 4.39389 23.6457 6.21567C24.1983 8.03745 24.1022 9.99448 23.3736 11.7533C22.9645 12.7411 22.37 13.6321 21.6301 14.3824L13.2839 22.7288C12.5748 23.438 11.425 23.438 10.7158 22.7288L2.40003 14.413L2.36966 14.3824Z" fill="white"/>
</mask>
<g mask="url(#mask0_6212_27476)">
<path fill-rule="evenodd" clip-rule="evenodd" d="M0.518489 11.4802C0.458702 11.3199 0.403781 11.1574 0.353871 10.9928C-0.1988 9.17093 -0.10265 7.21375 0.625938 5.45478C1.35453 3.69581 2.67047 2.24389 4.34956 1.3464C6.02864 0.448909 7.96697 0.161384 9.83428 0.532815C10.2692 0.619322 10.694 0.740324 11.105 0.893655L11.7349 0.263742C11.8813 0.117296 12.1188 0.117295 12.2652 0.263742L23.7416 11.7401C23.888 11.8865 23.888 12.124 23.7416 12.2704L12.2652 23.7467C12.1188 23.8932 11.8814 23.8932 11.7349 23.7467L2.49894 14.5108C2.43909 14.4527 2.38017 14.3938 2.32217 14.334L0.258568 12.2704C0.112122 12.124 0.112122 11.8865 0.258568 11.7401L0.518489 11.4802Z" fill="url(#paint0_linear_6212_27476)"/>
<g filter="url(#filter0_dd_6212_27476)">
<path fill-rule="evenodd" clip-rule="evenodd" d="M8.22728 8.60401L8.22741 8.60414L16.4567 8.60414C16.4567 6.97654 15.9741 5.38549 15.0698 4.03219C14.293 2.86965 13.2351 1.92741 11.999 1.29002C12.9163 0.817181 13.921 0.517568 14.963 0.414936C16.8576 0.228336 18.7583 0.70443 20.3412 1.7621C21.9241 2.81977 23.0913 4.39357 23.644 6.21535C24.1966 8.03712 24.1005 9.99416 23.3719 11.753C22.6434 13.5118 21.3275 14.9637 19.6486 15.8611C17.9696 16.7585 16.0314 17.046 14.1643 16.6746C12.2971 16.3032 10.6164 15.2959 9.40872 13.8242C8.20099 12.3526 7.54089 10.5078 7.54089 8.60402L8.22728 8.60401Z" fill="url(#paint1_linear_6212_27476)"/>
</g>
<g filter="url(#filter1_dd_6212_27476)">
<path d="M8.84556 5.4525C10.5863 3.7118 13.4085 3.7118 15.1492 5.45249C16.8899 7.19319 16.8899 10.0154 15.1492 11.7561C13.4085 13.4968 10.5863 13.4968 8.84556 11.7561C7.10487 10.0154 7.10486 7.19319 8.84556 5.4525Z" fill="url(#paint2_linear_6212_27476)"/>
</g>
</g>
<defs>
<filter id="filter0_dd_6212_27476" x="2.41881" y="-3.46617" width="26.7014" height="26.7014" filterUnits="userSpaceOnUse" color-interpolation-filters="sRGB">
<feFlood flood-opacity="0" result="BackgroundImageFix"/>
<feColorMatrix in="SourceAlpha" type="matrix" values="0 0 0 0 0 0 0 0 0 0 0 0 0 0 0 0 0 0 127 0" result="hardAlpha"/>
<feOffset dy="0.243305"/>
<feGaussianBlur stdDeviation="0.243305"/>
<feColorMatrix type="matrix" values="0 0 0 0 0 0 0 0 0 0 0 0 0 0 0 0 0 0 0.24 0"/>
<feBlend mode="normal" in2="BackgroundImageFix" result="effect1_dropShadow_6212_27476"/>
<feColorMatrix in="SourceAlpha" type="matrix" values="0 0 0 0 0 0 0 0 0 0 0 0 0 0 0 0 0 0 127 0" result="hardAlpha"/>
<feOffset dy="1.28055"/>
<feGaussianBlur stdDeviation="2.5611"/>
<feColorMatrix type="matrix" values="0 0 0 0 0 0 0 0 0 0 0 0 0 0 0 0 0 0 0.32 0"/>
<feBlend mode="normal" in2="effect1_dropShadow_6212_27476" result="effect2_dropShadow_6212_27476"/>
<feBlend mode="normal" in="SourceGraphic" in2="effect2_dropShadow_6212_27476" result="shape"/>
</filter>
<filter id="filter1_dd_6212_27476" x="2.41783" y="0.305317" width="19.159" height="19.159" filterUnits="userSpaceOnUse" color-interpolation-filters="sRGB">
<feFlood flood-opacity="0" result="BackgroundImageFix"/>
<feColorMatrix in="SourceAlpha" type="matrix" values="0 0 0 0 0 0 0 0 0 0 0 0 0 0 0 0 0 0 127 0" result="hardAlpha"/>
<feOffset dy="0.243305"/>
<feGaussianBlur stdDeviation="0.243305"/>
<feColorMatrix type="matrix" values="0 0 0 0 0 0 0 0 0 0 0 0 0 0 0 0 0 0 0.24 0"/>
<feBlend mode="normal" in2="BackgroundImageFix" result="effect1_dropShadow_6212_27476"/>
<feColorMatrix in="SourceAlpha" type="matrix" values="0 0 0 0 0 0 0 0 0 0 0 0 0 0 0 0 0 0 127 0" result="hardAlpha"/>
<feOffset dy="1.28055"/>
<feGaussianBlur stdDeviation="2.5611"/>
<feColorMatrix type="matrix" values="0 0 0 0 0 0 0 0 0 0 0 0 0 0 0 0 0 0 0.32 0"/>
<feBlend mode="normal" in2="effect1_dropShadow_6212_27476" result="effect2_dropShadow_6212_27476"/>
<feBlend mode="normal" in="SourceGraphic" in2="effect2_dropShadow_6212_27476" result="shape"/>
</filter>
<linearGradient id="paint0_linear_6212_27476" x1="13.9109" y1="22.919" x2="4.35515" y2="-0.74945" gradientUnits="userSpaceOnUse">
<stop stop-color="#273F67"/>
<stop offset="0.307698" stop-color="#1A508B"/>
<stop offset="0.584435" stop-color="#2064AE"/>
<stop offset="0.817879" stop-color="#0078D4"/>
<stop offset="1" stop-color="#0095E6"/>
</linearGradient>
<linearGradient id="paint1_linear_6212_27476" x1="13.5048" y1="0.263524" x2="18.2318" y2="16.369" gradientUnits="userSpaceOnUse">
<stop stop-color="#40D9FA"/>
<stop offset="1" stop-color="#0078D4"/>
</linearGradient>
<linearGradient id="paint2_linear_6212_27476" x1="11.0396" y1="4.14697" x2="12.9642" y2="13.2631" gradientUnits="userSpaceOnUse">
<stop stop-color="#A7F2FF"/>
<stop offset="1" stop-color="#00CCF9"/>
</linearGradient>
</defs>
</svg>
